<svg xmlns="http://www.w3.org/2000/svg" width="300" height="300" viewBox="0 0 300 300">
    <defs>
        <linearGradient id="a" x1="50%" x2="50%" y1="27.306%" y2="93.852%">
            <stop offset="0%" stop-color="#00B3B5"/>
            <stop offset="100%" stop-color="#7DFF97"/>
        </linearGradient>
        <linearGradient id="b" x1="50%" x2="50%" y1="50%" y2="100%">
            <stop offset="0%" stop-color="#F22FAA"/>
            <stop offset="100%" stop-color="#FF8ABB"/>
        </linearGradient>
    </defs>
    <g fill="none" fill-rule="evenodd">
        <circle cx="150" cy="150" r="150" fill="#FFFCCA"/>
        <g transform="translate(85.04 57.04)">
            <path fill="#F7E100" d="M67.156 2.675c-11.08 0-20.062 8.982-20.062 20.064v14.713h40.124V22.739c0-11.082-8.982-20.064-20.062-20.064z"/>
            <path fill="#552C74" fill-rule="nonzero" d="M87.218 40.127H47.094a2.674 2.674 0 0 1-2.675-2.676V22.74C44.419 10.2 54.619 0 67.156 0c12.537 0 22.737 10.201 22.737 22.739v14.713a2.675 2.675 0 0 1-2.675 2.675zm-37.45-5.35h34.775V22.738c0-9.588-7.8-17.389-17.387-17.389S49.769 13.151 49.769 22.74v12.037z"/>
            <path fill="#EAEAEA" d="M126.004 50.827H8.307l8.025-13.376h101.647z"/>
            <path fill="#552C74" fill-rule="nonzero" d="M126.004 53.502H8.307a2.672 2.672 0 0 1-2.293-4.051l8.025-13.376a2.675 2.675 0 0 1 2.293-1.299h101.647c.94 0 1.81.494 2.294 1.299l8.025 13.375a2.676 2.676 0 0 1-2.294 4.052zm-112.973-5.35H121.28l-4.816-8.025H17.847l-4.816 8.025z"/>
            <path fill="url(#a)" d="M71.17 21.397h37.446l.001 40.125H71.17z" transform="rotate(-166.838 89.893 41.46)"/>
            <path fill="#552C74" fill-rule="nonzero" d="M103.556 67.94a2.69 2.69 0 0 1-.608-.07l-36.464-8.529a2.675 2.675 0 0 1-1.996-3.214l9.137-39.074a2.675 2.675 0 0 1 3.213-1.996l36.464 8.53a2.675 2.675 0 0 1 1.996 3.214l-9.138 39.073a2.67 2.67 0 0 1-2.604 2.067zm-33.25-13.2l31.254 7.313 7.92-33.864-31.255-7.313-7.919 33.865z"/>
            <path fill="url(#a)" d="M21.415 13.282H66.47v48.273H21.415z" transform="rotate(173.258 43.942 37.419)"/>
            <path fill="#552C74" fill-rule="nonzero" d="M24.4 66.708c-1.337 0-2.493-1-2.653-2.362L16.08 16.408a2.672 2.672 0 0 1 2.343-2.97l44.74-5.287c1.447-.18 2.798.876 2.97 2.343l5.666 47.938a2.672 2.672 0 0 1-2.343 2.97l-44.74 5.288c-.105.013-.21.018-.317.018zm-2.692-48.27l5.037 42.624 39.428-4.66-5.037-42.625-39.428 4.661z"/>
            <path fill="url(#b)" d="M43.56 32.89l44.325-.001-.001 46.648H43.559z" transform="rotate(166.479 65.722 56.213)"/>
            <path fill="#552C74" fill-rule="nonzero" d="M49.627 86.75a2.676 2.676 0 0 1-2.601-2.051L36.121 39.343a2.677 2.677 0 0 1 1.976-3.226l43.092-10.361a2.681 2.681 0 0 1 3.226 1.978L95.32 73.087a2.677 2.677 0 0 1-1.975 3.226L50.253 86.677c-.206.05-.416.073-.626.073zM41.95 40.694l9.654 40.155 37.891-9.112-9.655-40.153-37.89 9.11z"/>
            <path fill="#FFF" d="M126.753 65.423l4.601 89.733H2.957l5.35-104.329h117.697"/>
            <path fill="#552C74" d="M131.354 157.831H2.957a2.672 2.672 0 0 1-2.67-2.811l5.35-104.33a2.675 2.675 0 0 1 2.67-2.539h117.697a2.674 2.674 0 1 1 0 5.351H10.85l-5.076 98.979h122.765l-4.456-86.923a2.676 2.676 0 0 1 2.534-2.808c1.462-.052 2.734 1.06 2.808 2.536l4.601 89.734a2.671 2.671 0 0 1-2.67 2.811z"/>
            <path fill="#F7E100" d="M25.694 53.502h42.799v98.979H25.694z"/>
            <ellipse cx="87.218" cy="66.878" fill="#FFF" rx="5.35" ry="5.35"/>
            <path fill="#552C74" fill-rule="nonzero" d="M87.218 74.903c-4.425 0-8.025-3.6-8.025-8.025 0-4.426 3.6-8.026 8.025-8.026 4.425 0 8.025 3.6 8.025 8.026 0 4.425-3.6 8.025-8.025 8.025zm0-10.7a2.678 2.678 0 0 0-2.675 2.675c0 1.476 1.2 2.675 2.675 2.675 1.475 0 2.675-1.2 2.675-2.675 0-1.476-1.2-2.675-2.675-2.675z"/>
            <ellipse cx="47.094" cy="66.878" fill="#FFF" rx="5.35" ry="5.35"/>
            <path fill="#552C74" fill-rule="nonzero" d="M47.094 74.903c-4.425 0-8.025-3.6-8.025-8.025 0-4.426 3.6-8.026 8.025-8.026 4.425 0 8.024 3.6 8.024 8.026 0 4.425-3.6 8.025-8.024 8.025zm0-10.7a2.678 2.678 0 0 0-2.675 2.675c0 1.476 1.2 2.675 2.675 2.675 1.474 0 2.675-1.2 2.675-2.675 0-1.476-1.2-2.675-2.675-2.675z"/>
            <path fill="#552C74" d="M67.156 107.004c-12.538 0-22.737-10.201-22.737-22.738V69.553a2.675 2.675 0 1 1 5.35 0v14.713c0 9.587 7.8 17.388 17.387 17.388 9.586 0 17.387-7.8 17.387-17.388V70.263a2.49 2.49 0 0 1-.103-.71c0-1.479 1.094-2.675 2.572-2.675h.206a2.674 2.674 0 0 1 2.675 2.675v14.713c0 12.537-10.2 22.738-22.737 22.738z"/>
        </g>
    </g>
</svg>
